<svg width="341" height="337" viewBox="0 0 341 337" fill="none" xmlns="http://www.w3.org/2000/svg">
<path d="M251.321 172.5C260.557 172.5 269.414 176.169 275.944 182.699C282.474 189.229 286.143 198.086 286.143 207.321V215.621C286.143 257.139 237.277 288.571 170.071 288.571C102.866 288.571 54 258.776 54 215.621V207.321C54 198.086 57.6687 189.229 64.199 182.699C70.7292 176.169 79.5862 172.5 88.8214 172.5H251.321Z" fill="url(#paint0_linear_1_28)"/>
<path d="M251.321 172.5C260.557 172.5 269.414 176.169 275.944 182.699C282.474 189.229 286.143 198.086 286.143 207.321V215.621C286.143 257.139 237.277 288.571 170.071 288.571C102.866 288.571 54 258.776 54 215.621V207.321C54 198.086 57.6687 189.229 64.199 182.699C70.7292 176.169 79.5862 172.5 88.8214 172.5H251.321Z" fill="url(#paint1_linear_1_28)"/>
<path d="M170.071 10C179.217 10 188.273 11.8014 196.723 15.3012C205.172 18.8011 212.849 23.931 219.316 30.3979C225.783 36.8649 230.913 44.5422 234.413 52.9917C237.913 61.4412 239.714 70.4972 239.714 79.6429C239.714 88.7885 237.913 97.8446 234.413 106.294C230.913 114.743 225.783 122.421 219.316 128.888C212.849 135.355 205.172 140.485 196.723 143.984C188.273 147.484 179.217 149.286 170.071 149.286C151.601 149.286 133.887 141.948 120.826 128.888C107.766 115.827 100.429 98.1133 100.429 79.6429C100.429 61.1724 107.766 43.4585 120.826 30.3979C133.887 17.3374 151.601 10 170.071 10Z" fill="url(#paint2_linear_1_28)"/>
<rect x="228" y="217" width="73" height="93" fill="#5D0303"/>
<path d="M228 322.75C224.333 322.75 221.196 321.372 218.587 318.617C215.978 315.861 214.671 312.544 214.667 308.667V217.125H208V203.042H241.333V196H281.333V203.042H314.667V217.125H308V308.667C308 312.54 306.696 315.856 304.087 318.617C301.478 321.377 298.338 322.755 294.667 322.75H228ZM241.333 294.583H254.667V231.208H241.333V294.583ZM268 294.583H281.333V231.208H268V294.583Z" fill="#F44336"/>
<defs>
<linearGradient id="paint0_linear_1_28" x1="109.204" y1="187.926" x2="146.706" y2="307.688" gradientUnits="userSpaceOnUse">
<stop offset="0.125" stop-color="#9C6CFE"/>
<stop offset="1" stop-color="#7A41DC"/>
</linearGradient>
<linearGradient id="paint1_linear_1_28" x1="170.071" y1="158.676" x2="222.582" y2="354.895" gradientUnits="userSpaceOnUse">
<stop stop-color="#885EDB" stop-opacity="0"/>
<stop offset="1" stop-color="#E362F8"/>
</linearGradient>
<linearGradient id="paint2_linear_1_28" x1="133.555" y1="28.5134" x2="204.533" y2="141.869" gradientUnits="userSpaceOnUse">
<stop offset="0.125" stop-color="#9C6CFE"/>
<stop offset="1" stop-color="#7A41DC"/>
</linearGradient>
</defs>
</svg>
