<svg width="341" height="337" viewBox="0 0 341 337" fill="none" xmlns="http://www.w3.org/2000/svg">
<path d="M251.321 172.5C260.557 172.5 269.414 176.169 275.944 182.699C282.474 189.229 286.143 198.086 286.143 207.321V215.621C286.143 257.139 237.277 288.571 170.071 288.571C102.866 288.571 54 258.776 54 215.621V207.321C54 198.086 57.6687 189.229 64.199 182.699C70.7292 176.169 79.5862 172.5 88.8214 172.5H251.321Z" fill="url(#paint0_linear_1_28)"/>
<path d="M251.321 172.5C260.557 172.5 269.414 176.169 275.944 182.699C282.474 189.229 286.143 198.086 286.143 207.321V215.621C286.143 257.139 237.277 288.571 170.071 288.571C102.866 288.571 54 258.776 54 215.621V207.321C54 198.086 57.6687 189.229 64.199 182.699C70.7292 176.169 79.5862 172.5 88.8214 172.5H251.321Z" fill="url(#paint1_linear_1_28)"/>
<path d="M170.071 10C179.217 10 188.273 11.8014 196.723 15.3012C205.172 18.8011 212.849 23.931 219.316 30.3979C225.783 36.8649 230.913 44.5422 234.413 52.9917C237.913 61.4412 239.714 70.4972 239.714 79.6429C239.714 88.7885 237.913 97.8446 234.413 106.294C230.913 114.743 225.783 122.421 219.316 128.888C212.849 135.355 205.172 140.485 196.723 143.984C188.273 147.484 179.217 149.286 170.071 149.286C151.601 149.286 133.887 141.948 120.826 128.888C107.766 115.827 100.429 98.1133 100.429 79.6429C100.429 61.1724 107.766 43.4585 120.826 30.3979C133.887 17.3374 151.601 10 170.071 10Z" fill="url(#paint2_linear_1_28)"/>
<path d="M211.283 281.519L282.682 210.125L314.875 242.318L243.476 313.713L217.499 307.492L211.283 281.519Z" fill="url(#paint3_linear_1_28)"/>
<path d="M211.287 281.524L213.601 279.196C213.601 279.196 214.882 290.352 224.762 300.233C234.643 310.113 245.795 311.394 245.795 311.394L243.481 313.713C241.133 316.062 238.156 317.682 234.908 318.378L205.947 324.585C205.186 324.748 204.397 324.719 203.652 324.499C202.906 324.279 202.227 323.876 201.677 323.327C201.127 322.777 200.723 322.099 200.503 321.353C200.282 320.607 200.252 319.818 200.415 319.058L206.622 290.092C207.319 286.846 208.939 283.871 211.287 281.524Z" fill="url(#paint4_linear_1_28)"/>
<path d="M291.808 200.99C296.101 196.839 301.854 194.542 307.825 194.592C313.796 194.643 319.509 197.037 323.731 201.259C327.954 205.481 330.349 211.194 330.401 217.165C330.452 223.136 328.155 228.889 324.006 233.183L306.638 250.551L274.445 218.353L291.808 200.99Z" fill="url(#paint5_linear_1_28)"/>
<path d="M304.24 252.949L317.417 239.771C317.417 239.771 306.251 238.477 296.385 228.61C286.514 218.739 285.224 207.573 285.224 207.573L272.047 220.751C272.047 220.751 273.332 231.926 283.203 241.792C293.074 251.659 304.24 252.949 304.24 252.949Z" fill="url(#paint6_linear_1_28)"/>
<defs>
<linearGradient id="paint0_linear_1_28" x1="109.204" y1="187.926" x2="146.706" y2="307.688" gradientUnits="userSpaceOnUse">
<stop offset="0.125" stop-color="#9C6CFE"/>
<stop offset="1" stop-color="#7A41DC"/>
</linearGradient>
<linearGradient id="paint1_linear_1_28" x1="170.071" y1="158.676" x2="222.582" y2="354.895" gradientUnits="userSpaceOnUse">
<stop stop-color="#885EDB" stop-opacity="0"/>
<stop offset="1" stop-color="#E362F8"/>
</linearGradient>
<linearGradient id="paint2_linear_1_28" x1="133.555" y1="28.5134" x2="204.533" y2="141.869" gradientUnits="userSpaceOnUse">
<stop offset="0.125" stop-color="#9C6CFE"/>
<stop offset="1" stop-color="#7A41DC"/>
</linearGradient>
<linearGradient id="paint3_linear_1_28" x1="271.502" y1="238.16" x2="286.309" y2="277.445" gradientUnits="userSpaceOnUse">
<stop stop-color="#FFA43D"/>
<stop offset="1" stop-color="#FB5937"/>
</linearGradient>
<linearGradient id="paint4_linear_1_28" x1="191.438" y1="292.55" x2="225.796" y2="326.238" gradientUnits="userSpaceOnUse">
<stop offset="0.255" stop-color="#FFD394"/>
<stop offset="1" stop-color="#FF921F"/>
</linearGradient>
<linearGradient id="paint5_linear_1_28" x1="318.809" y1="205.925" x2="298.233" y2="225.589" gradientUnits="userSpaceOnUse">
<stop stop-color="#F97DBD"/>
<stop offset="1" stop-color="#DD3CE2"/>
</linearGradient>
<linearGradient id="paint6_linear_1_28" x1="295.579" y1="238.654" x2="263.451" y2="225.02" gradientUnits="userSpaceOnUse">
<stop stop-color="#FF921F"/>
<stop offset="1" stop-color="#FFE994"/>
</linearGradient>
</defs>
</svg>
