<svg width="341" height="337" viewBox="0 0 341 337" fill="none" xmlns="http://www.w3.org/2000/svg">
<path d="M251.321 172.5C260.557 172.5 269.414 176.169 275.944 182.699C282.474 189.229 286.143 198.086 286.143 207.321V215.621C286.143 257.139 237.277 288.571 170.071 288.571C102.866 288.571 54 258.776 54 215.621V207.321C54 198.086 57.6687 189.229 64.199 182.699C70.7292 176.169 79.5862 172.5 88.8214 172.5H251.321Z" fill="url(#paint0_linear_1_28)"/>
<path d="M251.321 172.5C260.557 172.5 269.414 176.169 275.944 182.699C282.474 189.229 286.143 198.086 286.143 207.321V215.621C286.143 257.139 237.277 288.571 170.071 288.571C102.866 288.571 54 258.776 54 215.621V207.321C54 198.086 57.6687 189.229 64.199 182.699C70.7292 176.169 79.5862 172.5 88.8214 172.5H251.321Z" fill="url(#paint1_linear_1_28)"/>
<path d="M170.071 10C179.217 10 188.273 11.8014 196.723 15.3012C205.172 18.8011 212.849 23.931 219.316 30.3979C225.783 36.8649 230.913 44.5422 234.413 52.9917C237.913 61.4412 239.714 70.4972 239.714 79.6429C239.714 88.7885 237.913 97.8446 234.413 106.294C230.913 114.743 225.783 122.421 219.316 128.888C212.849 135.355 205.172 140.485 196.723 143.984C188.273 147.484 179.217 149.286 170.071 149.286C151.601 149.286 133.887 141.948 120.826 128.888C107.766 115.827 100.429 98.1133 100.429 79.6429C100.429 61.1724 107.766 43.4585 120.826 30.3979C133.887 17.3374 151.601 10 170.071 10Z" fill="url(#paint2_linear_1_28)"/>
<ellipse cx="257.5" cy="259" rx="36.1833" ry="35.1228" fill="#D9D9D9"/>
<path d="M257.5 278.5C269.029 278.5 278.375 269.77 278.375 259C278.375 248.23 269.029 239.5 257.5 239.5C245.971 239.5 236.625 248.23 236.625 259C236.625 269.77 245.971 278.5 257.5 278.5Z" fill="#385E8F"/>
<path d="M335.468 257.342C329.33 242.511 318.674 229.685 304.817 220.449C290.961 211.213 274.51 205.973 257.5 205.375C240.49 205.973 224.039 211.213 210.183 220.449C196.326 229.685 185.67 242.511 179.532 257.342C179.117 258.414 179.117 259.586 179.532 260.658C185.67 275.489 196.326 288.315 210.183 297.551C224.039 306.787 240.49 312.027 257.5 312.625C274.51 312.027 290.961 306.787 304.817 297.551C318.674 288.315 329.33 275.489 335.468 260.658C335.883 259.586 335.883 258.414 335.468 257.342ZM257.5 290.688C250.791 290.688 244.232 288.829 238.654 285.347C233.076 281.865 228.728 276.916 226.16 271.126C223.593 265.336 222.921 258.965 224.23 252.818C225.539 246.671 228.77 241.025 233.514 236.594C238.258 232.162 244.302 229.144 250.882 227.921C257.462 226.699 264.283 227.326 270.481 229.725C276.68 232.123 281.978 236.184 285.705 241.395C289.432 246.606 291.422 252.733 291.422 259C291.408 267.4 287.83 275.452 281.471 281.392C275.113 287.332 266.492 290.675 257.5 290.688Z" fill="#549BC1"/>
<defs>
<linearGradient id="paint0_linear_1_28" x1="109.204" y1="187.926" x2="146.706" y2="307.688" gradientUnits="userSpaceOnUse">
<stop offset="0.125" stop-color="#9C6CFE"/>
<stop offset="1" stop-color="#7A41DC"/>
</linearGradient>
<linearGradient id="paint1_linear_1_28" x1="170.071" y1="158.676" x2="222.582" y2="354.895" gradientUnits="userSpaceOnUse">
<stop stop-color="#885EDB" stop-opacity="0"/>
<stop offset="1" stop-color="#E362F8"/>
</linearGradient>
<linearGradient id="paint2_linear_1_28" x1="133.555" y1="28.5134" x2="204.533" y2="141.869" gradientUnits="userSpaceOnUse">
<stop offset="0.125" stop-color="#9C6CFE"/>
<stop offset="1" stop-color="#7A41DC"/>
</linearGradient>
</defs>
</svg>
