<svg width="341" height="337" viewBox="0 0 341 337" fill="none" xmlns="http://www.w3.org/2000/svg">
<path d="M80.2344 252.359C45.7031 231.047 31.9922 148.219 43.1641 110.922C51.2891 82.8281 82.7734 41.6562 111.211 31C135.078 21.7969 189.922 21.7969 213.281 31C241.719 41.6562 273.203 82.8281 281.328 110.922C292.5 148.703 283.867 231.047 249.844 252.359C177.734 296.922 152.344 296.922 80.2344 252.359Z" fill="#F5D1AC"/>
<path d="M25.8984 119.641C44.1797 157.906 48.75 159.359 66.0156 113.828C75.1563 89.6094 68.5547 75.0781 79.7266 59.5781C85.8203 50.8594 99.5313 36.3281 99.5313 36.3281C99.5313 36.3281 -8.63281 46.9844 25.8984 119.641Z" fill="#423223"/>
<path d="M72.1094 34.875C44.6875 51.8281 -13.7109 45.0469 20.8203 117.219C39.1016 155.484 43.6719 156.937 60.9375 111.406C70.0781 87.1875 63.4766 72.6562 74.6484 57.1562C80.7422 48.4375 99.5313 36.3281 99.5313 36.3281C99.5313 36.3281 90.8984 23.25 72.1094 34.875Z" fill="#947151"/>
<path d="M299.102 119.156C280.82 157.422 276.25 158.875 258.984 113.344C249.844 89.125 256.445 74.5937 245.273 59.0937C239.18 50.375 225.469 35.8438 225.469 35.8438C225.469 35.8438 333.633 46.9844 299.102 119.156Z" fill="#423223"/>
<path d="M252.891 34.875C280.313 51.8281 338.711 45.0469 304.18 117.219C285.898 155.484 281.328 156.937 264.063 111.406C254.922 87.1875 261.523 72.6562 250.352 57.1562C244.258 48.4375 225.469 36.3281 225.469 36.3281C225.469 36.3281 234.102 23.25 252.891 34.875Z" fill="#947151"/>
<path d="M89.8828 177.766C106.71 177.766 120.352 164.754 120.352 148.703C120.352 132.652 106.71 119.641 89.8828 119.641C73.0554 119.641 59.4141 132.652 59.4141 148.703C59.4141 164.754 73.0554 177.766 89.8828 177.766Z" fill="white"/>
<path d="M82.2656 170.5C94.8862 170.5 105.117 160.741 105.117 148.703C105.117 136.665 94.8862 126.906 82.2656 126.906C69.6451 126.906 59.4141 136.665 59.4141 148.703C59.4141 160.741 69.6451 170.5 82.2656 170.5Z" fill="#3E4347"/>
<path d="M235.117 177.766C251.945 177.766 265.586 164.754 265.586 148.703C265.586 132.652 251.945 119.641 235.117 119.641C218.29 119.641 204.648 132.652 204.648 148.703C204.648 164.754 218.29 177.766 235.117 177.766Z" fill="white"/>
<path d="M242.734 170.5C255.355 170.5 265.586 160.741 265.586 148.703C265.586 136.665 255.355 126.906 242.734 126.906C230.114 126.906 219.883 136.665 219.883 148.703C219.883 160.741 230.114 170.5 242.734 170.5Z" fill="#3E4347"/>
<path d="M110.195 236.375L133.555 260.109C147.773 274.156 176.719 274.156 190.937 260.109L214.805 236.375L190.43 212.156H134.57L110.195 236.375Z" fill="#7D644B"/>
<path d="M162.5 191.812C162.5 191.812 137.617 225.719 140.664 241.703C144.727 264.953 179.766 264.953 184.336 241.703C187.383 225.719 162.5 191.812 162.5 191.812Z" fill="#F15A61"/>
<path d="M162.5 250.422L168.086 217.969H156.914L162.5 250.422Z" fill="#BA454B"/>
<path d="M137.109 201.016H187.891V223.297H137.109V201.016Z" fill="#423223"/>
<path d="M242.734 206.344L206.68 170.016C184.844 148.219 140.156 148.219 118.32 170.016L82.2656 206.344C72.1094 216.516 72.1094 233.469 82.2656 243.641C92.4219 253.813 109.18 253.813 119.336 243.641L155.391 207.313C158.945 203.922 165.547 203.922 169.102 207.313L205.156 243.641C215.313 253.813 232.07 253.813 242.227 243.641C253.398 233.469 253.398 216.516 242.734 206.344Z" fill="#947151"/>
<path d="M132.539 172.922C132.539 160.328 145.742 157.906 162.5 157.906C179.258 157.906 192.461 160.328 192.461 172.922C192.461 183.094 168.594 191.812 162.5 191.812C156.406 191.812 132.539 182.609 132.539 172.922ZM118.371 188.964L123.393 184.159L128.426 188.95L123.404 193.75L118.371 188.964ZM106.371 202.522L111.394 197.722L116.421 202.512L111.404 207.308L106.371 202.522ZM122.51 207.133L127.532 202.333L132.564 207.119L127.547 211.924L122.51 207.133ZM196.539 188.848L201.576 184.063L206.593 188.863L201.561 193.653L196.539 188.848ZM208.853 202.285L213.891 197.494L218.908 202.294L213.875 207.085L208.853 202.285ZM192.7 207.366L197.732 202.58L202.754 207.375L197.722 212.171L192.7 207.366Z" fill="#3E4347"/>
<path d="M211.283 281.519L282.682 210.125L314.875 242.318L243.476 313.713L217.499 307.492L211.283 281.519Z" fill="url(#paint0_linear_1_28)"/>
<path d="M211.287 281.524L213.601 279.196C213.601 279.196 214.882 290.352 224.762 300.233C234.643 310.113 245.795 311.394 245.795 311.394L243.481 313.713C241.133 316.062 238.156 317.682 234.908 318.378L205.947 324.585C205.186 324.748 204.397 324.719 203.652 324.499C202.906 324.279 202.227 323.876 201.677 323.327C201.127 322.777 200.723 322.099 200.503 321.353C200.282 320.607 200.252 319.818 200.415 319.058L206.622 290.092C207.319 286.846 208.939 283.871 211.287 281.524Z" fill="url(#paint1_linear_1_28)"/>
<path d="M291.808 200.99C296.101 196.839 301.854 194.542 307.825 194.592C313.796 194.643 319.509 197.037 323.731 201.259C327.954 205.481 330.349 211.194 330.401 217.165C330.452 223.136 328.155 228.889 324.006 233.183L306.638 250.551L274.445 218.353L291.808 200.99Z" fill="url(#paint2_linear_1_28)"/>
<path d="M304.24 252.949L317.417 239.771C317.417 239.771 306.251 238.477 296.385 228.61C286.514 218.739 285.224 207.573 285.224 207.573L272.047 220.751C272.047 220.751 273.332 231.926 283.203 241.792C293.074 251.659 304.24 252.949 304.24 252.949Z" fill="url(#paint3_linear_1_28)"/>
<defs>
<linearGradient id="paint0_linear_1_28" x1="271.502" y1="238.16" x2="286.309" y2="277.445" gradientUnits="userSpaceOnUse">
<stop stop-color="#FFA43D"/>
<stop offset="1" stop-color="#FB5937"/>
</linearGradient>
<linearGradient id="paint1_linear_1_28" x1="191.438" y1="292.55" x2="225.796" y2="326.238" gradientUnits="userSpaceOnUse">
<stop offset="0.255" stop-color="#FFD394"/>
<stop offset="1" stop-color="#FF921F"/>
</linearGradient>
<linearGradient id="paint2_linear_1_28" x1="318.809" y1="205.925" x2="298.233" y2="225.589" gradientUnits="userSpaceOnUse">
<stop stop-color="#F97DBD"/>
<stop offset="1" stop-color="#DD3CE2"/>
</linearGradient>
<linearGradient id="paint3_linear_1_28" x1="295.579" y1="238.654" x2="263.451" y2="225.02" gradientUnits="userSpaceOnUse">
<stop stop-color="#FF921F"/>
<stop offset="1" stop-color="#FFE994"/>
</linearGradient>
</defs>
</svg>
