<svg width="341" height="337" viewBox="0 0 341 337" fill="none" xmlns="http://www.w3.org/2000/svg">
<path d="M80.2344 252.359C45.7031 231.047 31.9922 148.219 43.1641 110.922C51.2891 82.8281 82.7734 41.6562 111.211 31C135.078 21.7969 189.922 21.7969 213.281 31C241.719 41.6562 273.203 82.8281 281.328 110.922C292.5 148.703 283.867 231.047 249.844 252.359C177.734 296.922 152.344 296.922 80.2344 252.359Z" fill="#F5D1AC"/>
<path d="M25.8984 119.641C44.1797 157.906 48.75 159.359 66.0156 113.828C75.1563 89.6094 68.5547 75.0781 79.7266 59.5781C85.8203 50.8594 99.5313 36.3281 99.5313 36.3281C99.5313 36.3281 -8.63281 46.9844 25.8984 119.641Z" fill="#423223"/>
<path d="M72.1094 34.875C44.6875 51.8281 -13.7109 45.0469 20.8203 117.219C39.1016 155.484 43.6719 156.937 60.9375 111.406C70.0781 87.1875 63.4766 72.6562 74.6484 57.1562C80.7422 48.4375 99.5313 36.3281 99.5313 36.3281C99.5313 36.3281 90.8984 23.25 72.1094 34.875Z" fill="#947151"/>
<path d="M299.102 119.156C280.82 157.422 276.25 158.875 258.984 113.344C249.844 89.125 256.445 74.5937 245.273 59.0937C239.18 50.375 225.469 35.8438 225.469 35.8438C225.469 35.8438 333.633 46.9844 299.102 119.156Z" fill="#423223"/>
<path d="M252.891 34.875C280.313 51.8281 338.711 45.0469 304.18 117.219C285.898 155.484 281.328 156.937 264.063 111.406C254.922 87.1875 261.523 72.6562 250.352 57.1562C244.258 48.4375 225.469 36.3281 225.469 36.3281C225.469 36.3281 234.102 23.25 252.891 34.875Z" fill="#947151"/>
<path d="M89.8828 177.766C106.71 177.766 120.352 164.754 120.352 148.703C120.352 132.652 106.71 119.641 89.8828 119.641C73.0554 119.641 59.4141 132.652 59.4141 148.703C59.4141 164.754 73.0554 177.766 89.8828 177.766Z" fill="white"/>
<path d="M82.2656 170.5C94.8862 170.5 105.117 160.741 105.117 148.703C105.117 136.665 94.8862 126.906 82.2656 126.906C69.6451 126.906 59.4141 136.665 59.4141 148.703C59.4141 160.741 69.6451 170.5 82.2656 170.5Z" fill="#3E4347"/>
<path d="M235.117 177.766C251.945 177.766 265.586 164.754 265.586 148.703C265.586 132.652 251.945 119.641 235.117 119.641C218.29 119.641 204.648 132.652 204.648 148.703C204.648 164.754 218.29 177.766 235.117 177.766Z" fill="white"/>
<path d="M242.734 170.5C255.355 170.5 265.586 160.741 265.586 148.703C265.586 136.665 255.355 126.906 242.734 126.906C230.114 126.906 219.883 136.665 219.883 148.703C219.883 160.741 230.114 170.5 242.734 170.5Z" fill="#3E4347"/>
<path d="M110.195 236.375L133.555 260.109C147.773 274.156 176.719 274.156 190.937 260.109L214.805 236.375L190.43 212.156H134.57L110.195 236.375Z" fill="#7D644B"/>
<path d="M162.5 191.812C162.5 191.812 137.617 225.719 140.664 241.703C144.727 264.953 179.766 264.953 184.336 241.703C187.383 225.719 162.5 191.812 162.5 191.812Z" fill="#F15A61"/>
<path d="M162.5 250.422L168.086 217.969H156.914L162.5 250.422Z" fill="#BA454B"/>
<path d="M137.109 201.016H187.891V223.297H137.109V201.016Z" fill="#423223"/>
<path d="M242.734 206.344L206.68 170.016C184.844 148.219 140.156 148.219 118.32 170.016L82.2656 206.344C72.1094 216.516 72.1094 233.469 82.2656 243.641C92.4219 253.813 109.18 253.813 119.336 243.641L155.391 207.313C158.945 203.922 165.547 203.922 169.102 207.313L205.156 243.641C215.313 253.813 232.07 253.813 242.227 243.641C253.398 233.469 253.398 216.516 242.734 206.344Z" fill="#947151"/>
<path d="M132.539 172.922C132.539 160.328 145.742 157.906 162.5 157.906C179.258 157.906 192.461 160.328 192.461 172.922C192.461 183.094 168.594 191.812 162.5 191.812C156.406 191.812 132.539 182.609 132.539 172.922ZM118.371 188.964L123.393 184.159L128.426 188.95L123.404 193.75L118.371 188.964ZM106.371 202.522L111.394 197.722L116.421 202.512L111.404 207.308L106.371 202.522ZM122.51 207.133L127.532 202.333L132.564 207.119L127.547 211.924L122.51 207.133ZM196.539 188.848L201.576 184.063L206.593 188.863L201.561 193.653L196.539 188.848ZM208.853 202.285L213.891 197.494L218.908 202.294L213.875 207.085L208.853 202.285ZM192.7 207.366L197.732 202.58L202.754 207.375L197.722 212.171L192.7 207.366Z" fill="#3E4347"/>
<ellipse cx="257.5" cy="259" rx="36.1833" ry="35.1228" fill="#D9D9D9"/>
<path d="M257.5 278.5C269.029 278.5 278.375 269.77 278.375 259C278.375 248.23 269.029 239.5 257.5 239.5C245.971 239.5 236.625 248.23 236.625 259C236.625 269.77 245.971 278.5 257.5 278.5Z" fill="#385E8F"/>
<path d="M335.468 257.342C329.33 242.511 318.674 229.685 304.817 220.449C290.961 211.213 274.51 205.973 257.5 205.375C240.49 205.973 224.039 211.213 210.183 220.449C196.326 229.685 185.67 242.511 179.532 257.342C179.117 258.414 179.117 259.586 179.532 260.658C185.67 275.489 196.326 288.315 210.183 297.551C224.039 306.787 240.49 312.027 257.5 312.625C274.51 312.027 290.961 306.787 304.817 297.551C318.674 288.315 329.33 275.489 335.468 260.658C335.883 259.586 335.883 258.414 335.468 257.342ZM257.5 290.688C250.791 290.688 244.232 288.829 238.654 285.347C233.076 281.865 228.728 276.916 226.16 271.126C223.593 265.336 222.921 258.965 224.23 252.818C225.539 246.671 228.77 241.025 233.514 236.594C238.258 232.162 244.302 229.144 250.882 227.921C257.462 226.699 264.283 227.326 270.481 229.725C276.68 232.123 281.978 236.184 285.705 241.395C289.432 246.606 291.422 252.733 291.422 259C291.408 267.4 287.83 275.452 281.471 281.392C275.113 287.332 266.492 290.675 257.5 290.688Z" fill="#549BC1"/>
</svg>
